<mxfile host="app.diagrams.net" modified="2020-10-05T22:15:31.813Z" agent="5.0 (Windows)" etag="KTbfaH0kctZQQwOcNO6U" version="13.7.7" type="github">
  <diagram id="TOQEj234uVdWUdv0F9oo" name="Page-1">
    <mxGraphModel dx="580" dy="690" grid="1" gridSize="10" guides="1" tooltips="1" connect="1" arrows="1" fold="1" page="1" pageScale="1" pageWidth="850" pageHeight="1100" math="0" shadow="0">
      <root>
        <mxCell id="0" />
        <mxCell id="1" parent="0" />
        <mxCell id="4z11l-sIG_NwzeE_8q_A-1" value="User" style="shape=umlActor;verticalLabelPosition=bottom;verticalAlign=top;html=1;" parent="1" vertex="1">
          <mxGeometry x="180" y="190" width="50" height="90" as="geometry" />
        </mxCell>
        <mxCell id="812lM4jrbIjoXXAQaKb3-1" value="" style="whiteSpace=wrap;html=1;aspect=fixed;" vertex="1" parent="1">
          <mxGeometry x="350" y="310" width="80" height="80" as="geometry" />
        </mxCell>
      </root>
    </mxGraphModel>
  </diagram>
</mxfile>
